<svg width="299" height="434" viewBox="0 0 299 434" fill="none" xmlns="http://www.w3.org/2000/svg">
<path d="M221.728 73.5875L196.554 60.2301L221.728 46.857V73.5875Z" fill="#F97010"/>
<path d="M185.612 152.787C181.928 152.865 178.287 151.988 175.048 150.243C172.083 148.601 169.64 146.169 167.993 143.221C166.282 140.169 165.409 136.723 165.464 133.229C165.359 130.623 165.797 128.024 166.751 125.594C167.704 123.163 169.152 120.954 171.004 119.104C172.944 117.267 175.238 115.839 177.748 114.906C180.259 113.973 182.934 113.554 185.612 113.675C189.274 113.609 192.893 114.474 196.125 116.186C199.1 117.769 201.563 120.155 203.231 123.069C204.955 126.178 205.822 129.684 205.743 133.232C205.803 136.723 204.936 140.168 203.231 143.221C201.569 146.175 199.108 148.607 196.125 150.242C192.899 151.973 189.278 152.85 185.612 152.787Z" fill="black"/>
<path d="M221.728 224.933L189.002 201.244H221.728V224.933Z" fill="black"/>
<path d="M221.733 26.2166L176.969 50.8865H122.038L77.2739 26.2166H221.733Z" fill="black"/>
<path d="M77.2686 73.5874L102.439 60.23L77.2686 46.8569V73.5874Z" fill="#F97010"/>
<path d="M221.733 94.1177V122.694C220.919 119.564 219.703 116.55 218.115 113.728C214.951 107.953 210.293 103.12 204.62 99.728C198.857 96.347 192.286 94.5634 185.592 94.5634C178.898 94.5634 172.327 96.347 166.564 99.728C160.901 103.115 156.258 107.95 153.122 113.728C151.534 116.55 150.318 119.564 149.504 122.694C148.69 119.564 147.474 116.55 145.886 113.728C142.733 107.961 138.094 103.13 132.443 99.728C126.68 96.3468 120.109 94.5631 113.415 94.5631C106.721 94.5631 100.15 96.3468 94.3872 99.728C88.7146 103.12 84.0561 107.953 80.892 113.728C79.304 116.55 78.088 119.564 77.2739 122.694V94.1177L97.6092 82.897C113.491 74.165 131.348 69.5838 149.504 69.5838C167.659 69.5838 185.516 74.165 201.398 82.897L221.733 94.1177Z" fill="#F97010"/>
<path d="M113.382 152.787C117.066 152.864 120.707 151.987 123.946 150.243C126.911 148.601 129.354 146.169 131.001 143.221C132.712 140.169 133.585 136.723 133.53 133.229C133.635 130.623 133.197 128.024 132.243 125.594C131.29 123.163 129.842 120.954 127.99 119.104C126.051 117.267 123.756 115.839 121.246 114.906C118.735 113.973 116.06 113.554 113.382 113.675C109.72 113.609 106.101 114.474 102.87 116.186C99.8944 117.769 97.4309 120.155 95.7636 123.069C94.0391 126.178 93.1725 129.684 93.2515 133.232C93.1912 136.724 94.0576 140.17 95.7636 143.224C97.4249 146.177 99.8866 148.609 102.87 150.244C106.095 151.975 109.716 152.851 113.382 152.787Z" fill="black"/>
<path d="M221.733 143.588V171.588C221.734 173.027 221.449 174.452 220.894 175.782C220.34 177.112 219.527 178.32 218.501 179.338C217.476 180.356 216.259 181.163 214.919 181.714C213.58 182.264 212.144 182.547 210.694 182.546H88.313C86.8632 182.547 85.4274 182.264 84.0878 181.714C82.7482 181.163 81.5309 180.356 80.5057 179.338C79.4805 178.32 78.6674 177.112 78.1129 175.782C77.5584 174.452 77.2733 173.027 77.2739 171.588V143.588C78.0879 146.727 79.3038 149.749 80.892 152.581C84.0525 158.386 88.7097 163.253 94.3872 166.685C100.133 170.116 106.711 171.929 113.415 171.929C120.12 171.929 126.698 170.116 132.443 166.685C138.099 163.244 142.737 158.377 145.886 152.581C147.474 149.749 148.69 146.727 149.504 143.588C150.317 146.727 151.533 149.749 153.122 152.581C156.255 158.389 160.896 163.259 166.564 166.685C172.309 170.116 178.887 171.929 185.592 171.929C192.297 171.929 198.875 170.116 204.62 166.685C210.298 163.253 214.955 158.386 218.115 152.581C219.703 149.749 220.919 146.727 221.733 143.588Z" fill="#F97010"/>
<path d="M77.2686 224.933L109.992 201.244H77.2686V224.933Z" fill="black"/>
<path d="M185.501 201.239L149.505 228.53L113.482 201.239H185.501Z" fill="#F97010"/>
<path d="M221.735 246.672V258.077H77.2754V246.672L111.634 222.002L149.505 250.683L187.376 222.002L221.735 246.672Z" fill="black"/>
<path d="M221.733 276.743L149.504 291.739L77.2739 276.743H221.733Z" fill="black"/>
<path d="M69.0041 379.7V406.513H50.6414V379.913L26.4087 336.569H46.693L59.8226 360.942L72.9552 336.569H93.1336L69.0041 379.7Z" fill="black"/>
<path d="M131.457 407.783C124.798 407.846 118.235 406.204 112.401 403.016C106.727 399.959 101.974 395.46 98.6289 389.98C95.3096 384.403 93.5586 378.044 93.5586 371.567C93.5586 365.089 95.3096 358.73 98.6289 353.153C101.963 347.651 106.717 343.132 112.401 340.066C118.266 336.933 124.823 335.293 131.483 335.293C138.144 335.293 144.7 336.933 150.566 340.066C156.279 343.13 161.07 347.647 164.446 353.153C167.8 358.718 169.571 365.082 169.571 371.567C169.571 378.051 167.8 384.415 164.446 389.98C161.058 395.464 156.269 399.961 150.566 403.016C144.711 406.2 138.132 407.841 131.457 407.783ZM141.387 388.602C144.279 387.005 146.663 384.637 148.271 381.766C149.92 378.616 150.78 375.117 150.78 371.567C150.78 368.016 149.92 364.517 148.271 361.367C146.674 358.474 144.288 356.086 141.387 354.477C138.336 352.876 134.937 352.04 131.485 352.04C128.034 352.04 124.634 352.876 121.583 354.477C118.712 356.091 116.361 358.48 114.803 361.367C113.125 364.495 112.28 367.997 112.346 371.541C112.228 374.135 112.64 376.725 113.558 379.157C114.475 381.588 115.879 383.81 117.685 385.689C119.505 387.478 121.676 388.877 124.063 389.797C126.451 390.718 129.004 391.141 131.563 391.04C134.996 391.091 138.382 390.251 141.387 388.602H141.387Z" fill="black"/>
<path d="M225.191 406.513L198.395 371.645V406.513H180.031V336.569H198.395V368.255L221.668 336.569H243.018L218.785 369.847L246.969 406.514L225.191 406.513Z" fill="black"/>
<path d="M254.227 336.569H272.59V406.515H254.227V336.569Z" fill="black"/>
</svg>
